<svg xmlns="http://www.w3.org/2000/svg" viewBox="0 0 98 34.76"><title>logo</title><g id="Layer_2" data-name="Layer 2"><g id="Layer_1-2" data-name="Layer 1"><path d="M22,34.47,15.24,23.76c-.78.06-1.41.1-1.9.1H4.67V34.47H0V.39H13.34q6.48,0,10,3t3.53,8.5a12.08,12.08,0,0,1-1.92,7,10.74,10.74,0,0,1-5.52,4.09l7.93,11.54ZM13.34,19.62q4.38,0,6.72-1.92A6.93,6.93,0,0,0,22.39,12,6.65,6.65,0,0,0,20.06,6.5q-2.34-1.87-6.72-1.88H4.67v15Z"/><path d="M66.7,34.47H61.05l-12-15.73-6.28,6.82v8.91H38.12V.39h4.67V19.52L60.22.39h5.6L52.34,15.09Z"/><path d="M90.43,5.23a16.77,16.77,0,0,0-4.7-.75A8.66,8.66,0,0,0,81,5.62a3.56,3.56,0,0,0-1.78,3.14,4.12,4.12,0,0,0,1.07,3,7.6,7.6,0,0,0,2.63,1.8c1,.44,2.48,1,4.33,1.53a50.28,50.28,0,0,1,5.6,2.05A9.71,9.71,0,0,1,96.49,20,8,8,0,0,1,98,25.07a8.52,8.52,0,0,1-1.58,5.11A10.21,10.21,0,0,1,92,33.57a16.93,16.93,0,0,1-6.55,1.19,19.1,19.1,0,0,1-7.3-1.46A19.64,19.64,0,0,1,72,29.4l2.1-4A17.35,17.35,0,0,0,79.57,29a15.11,15.11,0,0,0,5.92,1.29A9.5,9.5,0,0,0,90.87,29a4.18,4.18,0,0,0,2-3.63,4.25,4.25,0,0,0-1.07-3,7.7,7.7,0,0,0-2.7-1.84A44.35,44.35,0,0,0,84.66,19a46.5,46.5,0,0,1-5.55-2,9.64,9.64,0,0,1-3.63-2.87,7.93,7.93,0,0,1-1.48-5,8,8,0,0,1,1.51-4.82,9.58,9.58,0,0,1,4.23-3.21A16.52,16.52,0,0,1,86.07,0a20.52,20.52,0,0,1,6,.9,20.1,20.1,0,0,1,5.23,2.41L95.37,7.5A19.78,19.78,0,0,0,90.43,5.23Z"/></g></g></svg>